<mxfile host="app.diagrams.net" modified="2024-06-22T11:43:14.722Z" agent="Mozilla/5.0 (Windows NT 10.0; Win64; x64; rv:127.0) Gecko/20100101 Firefox/127.0" version="24.6.1" etag="lsDik_GGEtGIBVTWc-LO" type="github">
  <diagram name="Page-1" id="jGOY1f2EeD-amuDHH9KW">
    <mxGraphModel>
      <root>
        <mxCell id="0" />
        <mxCell id="1" parent="0" />
      </root>
    </mxGraphModel>
  </diagram>
</mxfile>
